<svg xmlns="http://www.w3.org/2000/svg" width="24" height="24" viewBox="0 0 24 24"><path d="M12 2c5.514 0 10 4.486 10 10s-4.486 10-10 10S2 17.514 2 12 6.486 2 12 2zm0 1c-4.97 0-9 3.825-9 8.5 5.451-.458 6.942.439 8 1.5 4.375-.385 6.388-2.164 8-4-1.161-.668-2.494-1-4-1zm-1.839 6.84c-.273.23-.538.479-.727.775l-.045.07c-.288.46-.488.963-.589 1.495l-.017.093-.013.092c-.069.51-.082 1.03-.053 1.549l.012.219c.021.351.064.694.129 1.021l.019.093.018.083c.178.775.45 1.51.793 2.193l.036.064c.303.588.659 1.123 1.055 1.591l.049.058c.555.658 1.19 1.22 1.877 1.664l.098.062c.398.256.813.46 1.243.605l.104.035c.454.153.925.258 1.411.304h.136c.561-.053 1.11-.208 1.625-.455l.076-.036c.498-.236.968-.543 1.396-.909l.058-.051c.383-.341.72-.734 1.002-1.169l.04-.062c.244-.381.446-.791.603-1.224l.022-.062c.136-.378.236-.769.297-1.166l.008-.058v-.137c-.003-.308-.041-.614-.113-.909l-.011-.051-.028-.099c-.083-.291-.188-.574-.314-.844l-.021-.045c-.146-.314-.318-.612-.513-.889l-.028-.041c-.22-.318-.466-.613-.734-.883l-.038-.038-.031-.028c-.49-.485-1.043-.885-1.644-1.191l-.076-.038-.069-.032c-.585-.283-1.206-.45-1.848-.487h-.105c-.642.036-1.263.213-1.813.511l-.076.041-.069.042zm4.839 4.431c-.048.006-.095.014-.143.022-.048.007-.097.014-.145.022-.048.008-.095.016-.143.024-.048.008-.097.016-.145.025-.048.008-.096.017-.144.026-.048.008-.096.017-.144.026-.048.008-.096.017-.144.026-.048.008-.096.017-.144.026-.048.008-.096.017-.144.026-.048.008-.096.017-.144.026-.048.008-.096.017-.144.026-.048.008-.096.017-.144.026z"/></svg>